# xmcd
#
# Track frame offsets: 
#        150
#        15872
#        29108
#        47078
#        62608
#        78963
#        92118
#        107413
#        123571
#        136436
#        152164
#        170025
#        183674
#        201948
#        215548
#        231304
#        256371
#
# Disc length: 3521 seconds
#
# Revision: 0
# Processed by: cddbd v1.5.2PL0 Copyright (c) Steve Scherf et al.
# Submitted via: ExactAudioCopyFreeDBPlugin 1.0
#
DISCID=f00dbf11
DTITLE=Black Top - Cherry Picking
DYEAR=2016
DGENRE=Blues
TTITLE0=Cherry Picking
TTITLE1=Hot Love And Hard Liquor
TTITLE2=She Really Got Me Going
TTITLE3=Empty Hands
TTITLE4=Accident Waiting To Happen
TTITLE5=Kingpin
TTITLE6=Keep On Trucking
TTITLE7=In Flames
TTITLE8=Rock Out
TTITLE9=Now He Rides
TTITLE10=Curls
TTITLE11=Travel Pussy
TTITLE12=Waiting Around
TTITLE13=Pay My Dues (Bonus)
TTITLE14=Livin' It Up (Bonus)
TTITLE15=Out On The Town (Bonus)
TTITLE16=Out On The Town (Reprise)
EXTD=
EXTT0=
EXTT1=
EXTT2=
EXTT3=
EXTT4=
EXTT5=
EXTT6=
EXTT7=
EXTT8=
EXTT9=
EXTT10=
EXTT11=
EXTT12=
EXTT13=
EXTT14=
EXTT15=
EXTT16=
PLAYORDER=
